<svg xmlns="http://www.w3.org/2000/svg" width="32" height="32" version="1.1">
 <path style="fill:#0f0f0f" d="M 16,0 C 7.163444,0 0,7.163444 0,16 c 0,8.836556 7.163444,16 16,16 8.836556,0 16,-7.163444 16,-16 C 32,7.163444 24.836556,0 16,0 Z M 18.730469,8 C 22.889584,8 25.076804,10.914369 26.117188,13.398438 L 29,14 26.125,15.320312 C 26.347918,17.766932 25.234762,20.315814 23.714844,22.171875 22.255724,23.98574 20.3293,24.99928 18.140625,25.589844 14.9792,26.433504 11.328629,25.988866 8.5117188,24.132812 6.87021,22.951686 5.4129192,21.201344 4.5820312,19.113281 3.913269,17.046311 3.871065,14.981033 4.1953125,12.914062 4.5195636,14.095188 5.4745046,15.68866 6.609375,16.026125 7.7442456,16.363589 9.1840026,16.192445 10.035156,15.369875 11.838789,13.619277 12.849181,10.468606 14.855469,9.0976562 16.010605,8.2329032 17.372678,8 18.730469,8 Z M 20,10 C 18.895431,10 18,10.895431 18,12 18,13.104569 18.895431,14 20,14 21.104569,14 22,13.104569 22,12 22,10.895431 21.104569,10 20,10 Z"/>
</svg>
